<svg id="visual" viewBox="0 0 960 540" width="960" height="540" xmlns="http://www.w3.org/2000/svg" xmlns:xlink="http://www.w3.org/1999/xlink" version="1.1"><rect x="0" y="0" width="960" height="540" fill="#931C1C"></rect><path d="M0 408L96 419L192 380L288 391L384 382L480 415L576 405L672 420L768 383L864 409L960 405L960 541L864 541L768 541L672 541L576 541L480 541L384 541L288 541L192 541L96 541L0 541Z" fill="#f5730a"></path><path d="M0 390L96 434L192 378L288 384L384 430L480 383L576 402L672 419L768 432L864 379L960 425L960 541L864 541L768 541L672 541L576 541L480 541L384 541L288 541L192 541L96 541L0 541Z" fill="#df6009"></path><path d="M0 409L96 459L192 418L288 458L384 432L480 440L576 427L672 405L768 446L864 417L960 433L960 541L864 541L768 541L672 541L576 541L480 541L384 541L288 541L192 541L96 541L0 541Z" fill="#c94d08"></path><path d="M0 448L96 477L192 461L288 469L384 443L480 438L576 446L672 450L768 459L864 485L960 464L960 541L864 541L768 541L672 541L576 541L480 541L384 541L288 541L192 541L96 541L0 541Z" fill="#b33b06"></path><path d="M0 473L96 477L192 480L288 461L384 487L480 473L576 503L672 472L768 479L864 474L960 464L960 541L864 541L768 541L672 541L576 541L480 541L384 541L288 541L192 541L96 541L0 541Z" fill="#9d2804"></path><path d="M0 513L96 515L192 495L288 510L384 503L480 501L576 491L672 502L768 494L864 506L960 508L960 541L864 541L768 541L672 541L576 541L480 541L384 541L288 541L192 541L96 541L0 541Z" fill="#871400"></path></svg>