<svg id="visual" viewBox="0 0 540 960" width="540" height="960" xmlns="http://www.w3.org/2000/svg" xmlns:xlink="http://www.w3.org/1999/xlink" version="1.1"><rect x="0" y="0" width="540" height="960" fill="#931C1C"></rect><path d="M0 237L32 405L64 293L95 122L127 365L159 113L191 237L222 133L254 203L286 190L318 199L349 352L381 282L413 265L445 177L476 404L508 306L540 195L540 961L508 961L476 961L445 961L413 961L381 961L349 961L318 961L286 961L254 961L222 961L191 961L159 961L127 961L95 961L64 961L32 961L0 961Z" fill="#f5730a"></path><path d="M0 307L32 461L64 412L95 303L127 440L159 332L191 376L222 372L254 367L286 455L318 474L349 285L381 438L413 305L445 261L476 498L508 415L540 398L540 961L508 961L476 961L445 961L413 961L381 961L349 961L318 961L286 961L254 961L222 961L191 961L159 961L127 961L95 961L64 961L32 961L0 961Z" fill="#e3630a"></path><path d="M0 459L32 440L64 412L95 375L127 515L159 420L191 420L222 402L254 527L286 479L318 521L349 342L381 488L413 398L445 562L476 354L508 575L540 562L540 961L508 961L476 961L445 961L413 961L381 961L349 961L318 961L286 961L254 961L222 961L191 961L159 961L127 961L95 961L64 961L32 961L0 961Z" fill="#d15308"></path><path d="M0 585L32 649L64 588L95 575L127 593L159 570L191 624L222 637L254 548L286 455L318 584L349 568L381 486L413 595L445 519L476 455L508 437L540 494L540 961L508 961L476 961L445 961L413 961L381 961L349 961L318 961L286 961L254 961L222 961L191 961L159 961L127 961L95 961L64 961L32 961L0 961Z" fill="#be4407"></path><path d="M0 688L32 712L64 552L95 630L127 625L159 649L191 686L222 601L254 694L286 740L318 695L349 555L381 706L413 581L445 668L476 705L508 636L540 687L540 961L508 961L476 961L445 961L413 961L381 961L349 961L318 961L286 961L254 961L222 961L191 961L159 961L127 961L95 961L64 961L32 961L0 961Z" fill="#ac3505"></path><path d="M0 764L32 663L64 693L95 740L127 821L159 665L191 700L222 798L254 819L286 664L318 743L349 828L381 753L413 823L445 828L476 748L508 720L540 690L540 961L508 961L476 961L445 961L413 961L381 961L349 961L318 961L286 961L254 961L222 961L191 961L159 961L127 961L95 961L64 961L32 961L0 961Z" fill="#992503"></path><path d="M0 793L32 888L64 875L95 857L127 833L159 779L191 845L222 771L254 824L286 814L318 906L349 786L381 873L413 784L445 875L476 822L508 784L540 906L540 961L508 961L476 961L445 961L413 961L381 961L349 961L318 961L286 961L254 961L222 961L191 961L159 961L127 961L95 961L64 961L32 961L0 961Z" fill="#871400"></path></svg>