<svg id="visual" viewBox="0 0 960 540" width="960" height="540" xmlns="http://www.w3.org/2000/svg" xmlns:xlink="http://www.w3.org/1999/xlink" version="1.1"><rect x="0" y="0" width="960" height="540" fill="#931C1C"></rect><path d="M0 133L56 227L113 164L169 68L226 205L282 63L339 133L395 75L452 114L508 106L565 111L621 197L678 158L734 149L791 99L847 227L904 172L960 109L960 541L904 541L847 541L791 541L734 541L678 541L621 541L565 541L508 541L452 541L395 541L339 541L282 541L226 541L169 541L113 541L56 541L0 541Z" fill="#f5730a"></path><path d="M0 172L56 259L113 231L169 170L226 247L282 186L339 211L395 209L452 206L508 255L565 266L621 160L678 246L734 171L791 146L847 280L904 233L960 224L960 541L904 541L847 541L791 541L734 541L678 541L621 541L565 541L508 541L452 541L395 541L339 541L282 541L226 541L169 541L113 541L56 541L0 541Z" fill="#e3630a"></path><path d="M0 258L56 247L113 232L169 211L226 289L282 236L339 236L395 226L452 296L508 269L565 293L621 192L678 274L734 223L791 316L847 199L904 323L960 315L960 541L904 541L847 541L791 541L734 541L678 541L621 541L565 541L508 541L452 541L395 541L339 541L282 541L226 541L169 541L113 541L56 541L0 541Z" fill="#d15308"></path><path d="M0 329L56 365L113 330L169 323L226 333L282 320L339 351L395 358L452 308L508 256L565 328L621 319L678 273L734 334L791 292L847 256L904 245L960 277L960 541L904 541L847 541L791 541L734 541L678 541L621 541L565 541L508 541L452 541L395 541L339 541L282 541L226 541L169 541L113 541L56 541L0 541Z" fill="#be4407"></path><path d="M0 387L56 400L113 310L169 354L226 351L282 364L339 385L395 338L452 390L508 416L565 391L621 311L678 396L734 326L791 375L847 396L904 357L960 386L960 541L904 541L847 541L791 541L734 541L678 541L621 541L565 541L508 541L452 541L395 541L339 541L282 541L226 541L169 541L113 541L56 541L0 541Z" fill="#ac3505"></path><path d="M0 429L56 373L113 389L169 416L226 462L282 374L339 393L395 448L452 461L508 373L565 418L621 465L678 423L734 463L791 465L847 420L904 405L960 387L960 541L904 541L847 541L791 541L734 541L678 541L621 541L565 541L508 541L452 541L395 541L339 541L282 541L226 541L169 541L113 541L56 541L0 541Z" fill="#992503"></path><path d="M0 446L56 499L113 492L169 481L226 468L282 438L339 475L395 433L452 463L508 457L565 509L621 442L678 491L734 441L791 492L847 462L904 440L960 509L960 541L904 541L847 541L791 541L734 541L678 541L621 541L565 541L508 541L452 541L395 541L339 541L282 541L226 541L169 541L113 541L56 541L0 541Z" fill="#871400"></path></svg>