<svg id="visual" viewBox="0 0 540 960" width="540" height="960" xmlns="http://www.w3.org/2000/svg" xmlns:xlink="http://www.w3.org/1999/xlink" version="1.1"><rect x="0" y="0" width="540" height="960" fill="#931C1C"></rect><path d="M0 719L54 677L108 726L162 670L216 644L270 690L324 644L378 715L432 681L486 710L540 744L540 961L486 961L432 961L378 961L324 961L270 961L216 961L162 961L108 961L54 961L0 961Z" fill="#f5730a"></path><path d="M0 784L54 776L108 673L162 751L216 731L270 765L324 757L378 786L432 745L486 707L540 730L540 961L486 961L432 961L378 961L324 961L270 961L216 961L162 961L108 961L54 961L0 961Z" fill="#df6009"></path><path d="M0 775L54 816L108 769L162 727L216 722L270 749L324 755L378 803L432 784L486 761L540 814L540 961L486 961L432 961L378 961L324 961L270 961L216 961L162 961L108 961L54 961L0 961Z" fill="#c94d08"></path><path d="M0 794L54 811L108 816L162 856L216 861L270 802L324 772L378 848L432 853L486 785L540 784L540 961L486 961L432 961L378 961L324 961L270 961L216 961L162 961L108 961L54 961L0 961Z" fill="#b33b06"></path><path d="M0 871L54 870L108 856L162 865L216 839L270 877L324 886L378 868L432 831L486 823L540 891L540 961L486 961L432 961L378 961L324 961L270 961L216 961L162 961L108 961L54 961L0 961Z" fill="#9d2804"></path><path d="M0 895L54 930L108 930L162 875L216 909L270 892L324 887L378 937L432 874L486 872L540 897L540 961L486 961L432 961L378 961L324 961L270 961L216 961L162 961L108 961L54 961L0 961Z" fill="#871400"></path></svg>