<svg id="visual" viewBox="0 0 540 960" width="540" height="960" xmlns="http://www.w3.org/2000/svg" xmlns:xlink="http://www.w3.org/1999/xlink" version="1.1"><path d="M0 155L10 145.3C20 135.7 40 116.3 60 108.3C80 100.3 100 103.7 120 105.3C140 107 160 107 180 110.2C200 113.3 220 119.7 240 113.2C260 106.7 280 87.3 300 92.2C320 97 340 126 360 130.8C380 135.7 400 116.3 420 114.7C440 113 460 129 480 125.8C500 122.7 520 100.3 530 89.2L540 78L540 0L530 0C520 0 500 0 480 0C460 0 440 0 420 0C400 0 380 0 360 0C340 0 320 0 300 0C280 0 260 0 240 0C220 0 200 0 180 0C160 0 140 0 120 0C100 0 80 0 60 0C40 0 20 0 10 0L0 0Z" fill="#f5730a"></path><path d="M0 231L10 224.7C20 218.3 40 205.7 60 204.2C80 202.7 100 212.3 120 228.3C140 244.3 160 266.7 180 263.5C200 260.3 220 231.7 240 210.8C260 190 280 177 300 191.3C320 205.7 340 247.3 360 268.2C380 289 400 289 420 287.3C440 285.7 460 282.3 480 261.5C500 240.7 520 202.3 530 183.2L540 164L540 76L530 87.2C520 98.3 500 120.7 480 123.8C460 127 440 111 420 112.7C400 114.3 380 133.7 360 128.8C340 124 320 95 300 90.2C280 85.3 260 104.7 240 111.2C220 117.7 200 111.3 180 108.2C160 105 140 105 120 103.3C100 101.7 80 98.3 60 106.3C40 114.3 20 133.7 10 143.3L0 153Z" fill="#de5b17"></path><path d="M0 443L10 446.2C20 449.3 40 455.7 60 454C80 452.3 100 442.7 120 460.2C140 477.7 160 522.3 180 538.3C200 554.3 220 541.7 240 517.7C260 493.7 280 458.3 300 448.7C320 439 340 455 360 493.5C380 532 400 593 420 593C440 593 460 532 480 511.2C500 490.3 520 509.7 530 519.3L540 529L540 162L530 181.2C520 200.3 500 238.7 480 259.5C460 280.3 440 283.7 420 285.3C400 287 380 287 360 266.2C340 245.3 320 203.7 300 189.3C280 175 260 188 240 208.8C220 229.7 200 258.3 180 261.5C160 264.7 140 242.3 120 226.3C100 210.3 80 200.7 60 202.2C40 203.7 20 216.3 10 222.7L0 229Z" fill="#c6451c"></path><path d="M0 807L10 794.3C20 781.7 40 756.3 60 762.8C80 769.3 100 807.7 120 822C140 836.3 160 826.7 180 809C200 791.3 220 765.7 240 749.7C260 733.7 280 727.3 300 748.2C320 769 340 817 360 837.8C380 858.7 400 852.3 420 841.2C440 830 460 814 480 804.3C500 794.7 520 791.3 530 789.7L540 788L540 527L530 517.3C520 507.7 500 488.3 480 509.2C460 530 440 591 420 591C400 591 380 530 360 491.5C340 453 320 437 300 446.7C280 456.3 260 491.7 240 515.7C220 539.7 200 552.3 180 536.3C160 520.3 140 475.7 120 458.2C100 440.7 80 450.3 60 452C40 453.7 20 447.3 10 444.2L0 441Z" fill="#ad301d"></path><path d="M0 961L10 961C20 961 40 961 60 961C80 961 100 961 120 961C140 961 160 961 180 961C200 961 220 961 240 961C260 961 280 961 300 961C320 961 340 961 360 961C380 961 400 961 420 961C440 961 460 961 480 961C500 961 520 961 530 961L540 961L540 786L530 787.7C520 789.3 500 792.7 480 802.3C460 812 440 828 420 839.2C400 850.3 380 856.7 360 835.8C340 815 320 767 300 746.2C280 725.3 260 731.7 240 747.7C220 763.7 200 789.3 180 807C160 824.7 140 834.3 120 820C100 805.7 80 767.3 60 760.8C40 754.3 20 779.7 10 792.3L0 805Z" fill="#931c1c"></path></svg>