<svg id="visual" viewBox="0 0 960 540" width="960" height="540" xmlns="http://www.w3.org/2000/svg" xmlns:xlink="http://www.w3.org/1999/xlink" version="1.1"><path d="M0 87L17.8 81.7C35.7 76.3 71.3 65.7 106.8 61.2C142.3 56.7 177.7 58.3 213.2 59.2C248.7 60 284.3 60 320 61.8C355.7 63.7 391.3 67.3 426.8 63.8C462.3 60.3 497.7 49.7 533.2 52.3C568.7 55 604.3 71 640 73.7C675.7 76.3 711.3 65.7 746.8 64.8C782.3 64 817.7 73 853.2 71.2C888.7 69.3 924.3 56.7 942.2 50.3L960 44L960 0L942.2 0C924.3 0 888.7 0 853.2 0C817.7 0 782.3 0 746.8 0C711.3 0 675.7 0 640 0C604.3 0 568.7 0 533.2 0C497.7 0 462.3 0 426.8 0C391.3 0 355.7 0 320 0C284.3 0 248.7 0 213.2 0C177.7 0 142.3 0 106.8 0C71.3 0 35.7 0 17.8 0L0 0Z" fill="#f5730a"></path><path d="M0 131L17.8 127.3C35.7 123.7 71.3 116.3 106.8 115.3C142.3 114.3 177.7 119.7 213.2 128.7C248.7 137.7 284.3 150.3 320 148.5C355.7 146.7 391.3 130.3 426.8 118.7C462.3 107 497.7 100 533.2 108.2C568.7 116.3 604.3 139.7 640 151.3C675.7 163 711.3 163 746.8 162.2C782.3 161.3 817.7 159.7 853.2 148C888.7 136.3 924.3 114.7 942.2 103.8L960 93L960 42L942.2 48.3C924.3 54.7 888.7 67.3 853.2 69.2C817.7 71 782.3 62 746.8 62.8C711.3 63.7 675.7 74.3 640 71.7C604.3 69 568.7 53 533.2 50.3C497.7 47.7 462.3 58.3 426.8 61.8C391.3 65.3 355.7 61.7 320 59.8C284.3 58 248.7 58 213.2 57.2C177.7 56.3 142.3 54.7 106.8 59.2C71.3 63.7 35.7 74.3 17.8 79.7L0 85Z" fill="#de5b17"></path><path d="M0 249L17.8 250.8C35.7 252.7 71.3 256.3 106.8 255.5C142.3 254.7 177.7 249.3 213.2 259.3C248.7 269.3 284.3 294.7 320 303.7C355.7 312.7 391.3 305.3 426.8 291.8C462.3 278.3 497.7 258.7 533.2 253.3C568.7 248 604.3 257 640 278.5C675.7 300 711.3 334 746.8 334C782.3 334 817.7 300 853.2 288.3C888.7 276.7 924.3 287.3 942.2 292.7L960 298L960 91L942.2 101.8C924.3 112.7 888.7 134.3 853.2 146C817.7 157.7 782.3 159.3 746.8 160.2C711.3 161 675.7 161 640 149.3C604.3 137.7 568.7 114.3 533.2 106.2C497.7 98 462.3 105 426.8 116.7C391.3 128.3 355.7 144.7 320 146.5C284.3 148.3 248.7 135.7 213.2 126.7C177.7 117.7 142.3 112.3 106.8 113.3C71.3 114.3 35.7 121.7 17.8 125.3L0 129Z" fill="#c6451c"></path><path d="M0 455L17.8 447.7C35.7 440.3 71.3 425.7 106.8 429.2C142.3 432.7 177.7 454.3 213.2 462.5C248.7 470.7 284.3 465.3 320 455.5C355.7 445.7 391.3 431.3 426.8 422.3C462.3 413.3 497.7 409.7 533.2 421.3C568.7 433 604.3 460 640 471.7C675.7 483.3 711.3 479.7 746.8 473.3C782.3 467 817.7 458 853.2 452.7C888.7 447.3 924.3 445.7 942.2 444.8L960 444L960 296L942.2 290.7C924.3 285.3 888.7 274.7 853.2 286.3C817.7 298 782.3 332 746.8 332C711.3 332 675.7 298 640 276.5C604.3 255 568.7 246 533.2 251.3C497.7 256.7 462.3 276.3 426.8 289.8C391.3 303.3 355.7 310.7 320 301.7C284.3 292.7 248.7 267.3 213.2 257.3C177.7 247.3 142.3 252.7 106.8 253.5C71.3 254.3 35.7 250.7 17.8 248.8L0 247Z" fill="#ad301d"></path><path d="M0 541L17.8 541C35.7 541 71.3 541 106.8 541C142.3 541 177.7 541 213.2 541C248.7 541 284.3 541 320 541C355.7 541 391.3 541 426.8 541C462.3 541 497.7 541 533.2 541C568.7 541 604.3 541 640 541C675.7 541 711.3 541 746.8 541C782.3 541 817.7 541 853.2 541C888.7 541 924.3 541 942.2 541L960 541L960 442L942.2 442.8C924.3 443.7 888.7 445.3 853.2 450.7C817.7 456 782.3 465 746.8 471.3C711.3 477.7 675.7 481.3 640 469.7C604.3 458 568.7 431 533.2 419.3C497.7 407.7 462.3 411.3 426.8 420.3C391.3 429.3 355.7 443.7 320 453.5C284.3 463.3 248.7 468.7 213.2 460.5C177.7 452.3 142.3 430.7 106.8 427.2C71.3 423.7 35.7 438.3 17.8 445.7L0 453Z" fill="#931c1c"></path></svg>